<svg width="56" height="56" viewBox="0 0 56 56" fill="none" xmlns="http://www.w3.org/2000/svg">
<rect width="56" height="56" fill="#FFDD00"/>
<path d="M10.125 38V20.5455H17.6591C18.9545 20.5455 20.0881 20.8011 21.0597 21.3125C22.0313 21.8239 22.7869 22.5426 23.3267 23.4688C23.8665 24.3949 24.1364 25.4773 24.1364 26.7159C24.1364 27.9659 23.858 29.0483 23.3011 29.9631C22.75 30.8778 21.9744 31.5824 20.9744 32.0767C19.9801 32.571 18.8182 32.8182 17.4886 32.8182H12.9886V29.1364H16.5341C17.0909 29.1364 17.5653 29.0398 17.9574 28.8466C18.3551 28.6477 18.6591 28.3665 18.8693 28.0028C19.0852 27.6392 19.1932 27.2102 19.1932 26.7159C19.1932 26.2159 19.0852 25.7898 18.8693 25.4375C18.6591 25.0795 18.3551 24.8068 17.9574 24.6193C17.5653 24.4261 17.0909 24.3295 16.5341 24.3295H14.8636V38H10.125ZM25.875 20.5455H31.7727L35.8295 30.4318H36.0341L40.0909 20.5455H45.9886V38H41.3523V27.9091H41.2159L37.3295 37.8636H34.5341L30.6477 27.8409H30.5114V38H25.875V20.5455Z" fill="black"/>
</svg>
